<?xml version="1.0" encoding="UTF-8"?>
<svg xmlns="http://www.w3.org/2000/svg" xmlns:xlink="http://www.w3.org/1999/xlink" width="504pt" height="504pt" viewBox="0 0 504 504" version="1.1">
<g id="surface44">
<rect x="0" y="0" width="504" height="504" style="fill:rgb(100%,100%,100%);fill-opacity:1;stroke:none;"/>
<path style=" stroke:none;fill-rule:nonzero;fill:rgb(10.588235%,61.960784%,46.666667%);fill-opacity:1;" d="M 78.667969 392.097656 L 112.800781 392.097656 L 112.800781 342.488281 L 78.667969 342.488281 Z M 78.667969 392.097656 "/>
<path style="fill:none;stroke-width:2.25;stroke-linecap:butt;stroke-linejoin:round;stroke:rgb(0%,0%,0%);stroke-opacity:1;stroke-miterlimit:10;" d="M 78.667969 378.046875 L 112.800781 378.046875 "/>
<path style="fill:none;stroke-width:0.75;stroke-linecap:round;stroke-linejoin:round;stroke:rgb(0%,0%,0%);stroke-opacity:1;stroke-dasharray:3,3;stroke-miterlimit:10;" d="M 95.734375 416.800781 L 95.734375 392.097656 "/>
<path style="fill:none;stroke-width:0.75;stroke-linecap:round;stroke-linejoin:round;stroke:rgb(0%,0%,0%);stroke-opacity:1;stroke-dasharray:3,3;stroke-miterlimit:10;" d="M 95.734375 80.042969 L 95.734375 342.488281 "/>
<path style="fill:none;stroke-width:0.75;stroke-linecap:round;stroke-linejoin:round;stroke:rgb(0%,0%,0%);stroke-opacity:1;stroke-miterlimit:10;" d="M 87.199219 416.800781 L 104.265625 416.800781 "/>
<path style="fill:none;stroke-width:0.75;stroke-linecap:round;stroke-linejoin:round;stroke:rgb(0%,0%,0%);stroke-opacity:1;stroke-miterlimit:10;" d="M 87.199219 80.042969 L 104.265625 80.042969 "/>
<path style="fill:none;stroke-width:0.75;stroke-linecap:round;stroke-linejoin:round;stroke:rgb(0%,0%,0%);stroke-opacity:1;stroke-miterlimit:10;" d="M 78.667969 392.097656 L 112.800781 392.097656 L 112.800781 342.488281 L 78.667969 342.488281 L 78.667969 392.097656 "/>
<path style=" stroke:none;fill-rule:nonzero;fill:rgb(75.686275%,40%,6.27451%);fill-opacity:1;" d="M 121.332031 394.128906 L 155.464844 394.128906 L 155.464844 360.808594 L 121.332031 360.808594 Z M 121.332031 394.128906 "/>
<path style="fill:none;stroke-width:2.25;stroke-linecap:butt;stroke-linejoin:round;stroke:rgb(0%,0%,0%);stroke-opacity:1;stroke-miterlimit:10;" d="M 121.332031 384.628906 L 155.464844 384.628906 "/>
<path style="fill:none;stroke-width:0.75;stroke-linecap:round;stroke-linejoin:round;stroke:rgb(0%,0%,0%);stroke-opacity:1;stroke-dasharray:3,3;stroke-miterlimit:10;" d="M 138.398438 410.910156 L 138.398438 394.128906 "/>
<path style="fill:none;stroke-width:0.75;stroke-linecap:round;stroke-linejoin:round;stroke:rgb(0%,0%,0%);stroke-opacity:1;stroke-dasharray:3,3;stroke-miterlimit:10;" d="M 138.398438 90.6875 L 138.398438 360.808594 "/>
<path style="fill:none;stroke-width:0.75;stroke-linecap:round;stroke-linejoin:round;stroke:rgb(0%,0%,0%);stroke-opacity:1;stroke-miterlimit:10;" d="M 129.867188 410.910156 L 146.933594 410.910156 "/>
<path style="fill:none;stroke-width:0.75;stroke-linecap:round;stroke-linejoin:round;stroke:rgb(0%,0%,0%);stroke-opacity:1;stroke-miterlimit:10;" d="M 129.867188 90.6875 L 146.933594 90.6875 "/>
<path style="fill:none;stroke-width:0.75;stroke-linecap:round;stroke-linejoin:round;stroke:rgb(0%,0%,0%);stroke-opacity:1;stroke-miterlimit:10;" d="M 121.332031 394.128906 L 155.464844 394.128906 L 155.464844 360.808594 L 121.332031 360.808594 L 121.332031 394.128906 "/>
<path style=" stroke:none;fill-rule:nonzero;fill:rgb(55.294118%,41.960784%,52.54902%);fill-opacity:1;" d="M 164 388.238281 L 198.132812 388.238281 L 198.132812 344.15625 L 164 344.15625 Z M 164 388.238281 "/>
<path style="fill:none;stroke-width:2.25;stroke-linecap:butt;stroke-linejoin:round;stroke:rgb(0%,0%,0%);stroke-opacity:1;stroke-miterlimit:10;" d="M 164 376.511719 L 198.132812 376.511719 "/>
<path style="fill:none;stroke-width:0.75;stroke-linecap:round;stroke-linejoin:round;stroke:rgb(0%,0%,0%);stroke-opacity:1;stroke-dasharray:3,3;stroke-miterlimit:10;" d="M 181.066406 408.179688 L 181.066406 388.238281 "/>
<path style="fill:none;stroke-width:0.75;stroke-linecap:round;stroke-linejoin:round;stroke:rgb(0%,0%,0%);stroke-opacity:1;stroke-dasharray:3,3;stroke-miterlimit:10;" d="M 181.066406 85.113281 L 181.066406 344.15625 "/>
<path style="fill:none;stroke-width:0.75;stroke-linecap:round;stroke-linejoin:round;stroke:rgb(0%,0%,0%);stroke-opacity:1;stroke-miterlimit:10;" d="M 172.535156 408.179688 L 189.601562 408.179688 "/>
<path style="fill:none;stroke-width:0.75;stroke-linecap:round;stroke-linejoin:round;stroke:rgb(0%,0%,0%);stroke-opacity:1;stroke-miterlimit:10;" d="M 172.535156 85.113281 L 189.601562 85.113281 "/>
<path style="fill:none;stroke-width:0.75;stroke-linecap:round;stroke-linejoin:round;stroke:rgb(0%,0%,0%);stroke-opacity:1;stroke-miterlimit:10;" d="M 164 388.238281 L 198.132812 388.238281 L 198.132812 344.15625 L 164 344.15625 L 164 388.238281 "/>
<path style=" stroke:none;fill-rule:nonzero;fill:rgb(73.72549%,26.27451%,60%);fill-opacity:1;" d="M 206.667969 388.238281 L 240.800781 388.238281 L 240.800781 333.398438 L 206.667969 333.398438 Z M 206.667969 388.238281 "/>
<path style="fill:none;stroke-width:2.25;stroke-linecap:butt;stroke-linejoin:round;stroke:rgb(0%,0%,0%);stroke-opacity:1;stroke-miterlimit:10;" d="M 206.667969 373.570312 L 240.800781 373.570312 "/>
<path style="fill:none;stroke-width:0.75;stroke-linecap:round;stroke-linejoin:round;stroke:rgb(0%,0%,0%);stroke-opacity:1;stroke-dasharray:3,3;stroke-miterlimit:10;" d="M 223.734375 410.910156 L 223.734375 388.238281 "/>
<path style="fill:none;stroke-width:0.75;stroke-linecap:round;stroke-linejoin:round;stroke:rgb(0%,0%,0%);stroke-opacity:1;stroke-dasharray:3,3;stroke-miterlimit:10;" d="M 223.734375 72.800781 L 223.734375 333.398438 "/>
<path style="fill:none;stroke-width:0.75;stroke-linecap:round;stroke-linejoin:round;stroke:rgb(0%,0%,0%);stroke-opacity:1;stroke-miterlimit:10;" d="M 215.199219 410.910156 L 232.265625 410.910156 "/>
<path style="fill:none;stroke-width:0.75;stroke-linecap:round;stroke-linejoin:round;stroke:rgb(0%,0%,0%);stroke-opacity:1;stroke-miterlimit:10;" d="M 215.199219 72.800781 L 232.265625 72.800781 "/>
<path style="fill:none;stroke-width:0.75;stroke-linecap:round;stroke-linejoin:round;stroke:rgb(0%,0%,0%);stroke-opacity:1;stroke-miterlimit:10;" d="M 206.667969 388.238281 L 240.800781 388.238281 L 240.800781 333.398438 L 206.667969 333.398438 L 206.667969 388.238281 "/>
<path style=" stroke:none;fill-rule:nonzero;fill:rgb(65.098039%,40.392157%,32.54902%);fill-opacity:1;" d="M 249.332031 381.242188 L 283.464844 381.242188 L 283.464844 336.269531 L 249.332031 336.269531 Z M 249.332031 381.242188 "/>
<path style="fill:none;stroke-width:2.25;stroke-linecap:butt;stroke-linejoin:round;stroke:rgb(0%,0%,0%);stroke-opacity:1;stroke-miterlimit:10;" d="M 249.332031 365.570312 L 283.464844 365.570312 "/>
<path style="fill:none;stroke-width:0.75;stroke-linecap:round;stroke-linejoin:round;stroke:rgb(0%,0%,0%);stroke-opacity:1;stroke-dasharray:3,3;stroke-miterlimit:10;" d="M 266.398438 408.179688 L 266.398438 381.242188 "/>
<path style="fill:none;stroke-width:0.75;stroke-linecap:round;stroke-linejoin:round;stroke:rgb(0%,0%,0%);stroke-opacity:1;stroke-dasharray:3,3;stroke-miterlimit:10;" d="M 266.398438 76.496094 L 266.398438 336.269531 "/>
<path style="fill:none;stroke-width:0.75;stroke-linecap:round;stroke-linejoin:round;stroke:rgb(0%,0%,0%);stroke-opacity:1;stroke-miterlimit:10;" d="M 257.867188 408.179688 L 274.933594 408.179688 "/>
<path style="fill:none;stroke-width:0.75;stroke-linecap:round;stroke-linejoin:round;stroke:rgb(0%,0%,0%);stroke-opacity:1;stroke-miterlimit:10;" d="M 257.867188 76.496094 L 274.933594 76.496094 "/>
<path style="fill:none;stroke-width:0.75;stroke-linecap:round;stroke-linejoin:round;stroke:rgb(0%,0%,0%);stroke-opacity:1;stroke-miterlimit:10;" d="M 249.332031 381.242188 L 283.464844 381.242188 L 283.464844 336.269531 L 249.332031 336.269531 L 249.332031 381.242188 "/>
<path style=" stroke:none;fill-rule:nonzero;fill:rgb(58.823529%,65.490196%,7.45098%);fill-opacity:1;" d="M 292 392.097656 L 326.132812 392.097656 L 326.132812 355.375 L 292 355.375 Z M 292 392.097656 "/>
<path style="fill:none;stroke-width:2.25;stroke-linecap:butt;stroke-linejoin:round;stroke:rgb(0%,0%,0%);stroke-opacity:1;stroke-miterlimit:10;" d="M 292 382.910156 L 326.132812 382.910156 "/>
<path style="fill:none;stroke-width:0.75;stroke-linecap:round;stroke-linejoin:round;stroke:rgb(0%,0%,0%);stroke-opacity:1;stroke-dasharray:3,3;stroke-miterlimit:10;" d="M 309.066406 410.910156 L 309.066406 392.097656 "/>
<path style="fill:none;stroke-width:0.75;stroke-linecap:round;stroke-linejoin:round;stroke:rgb(0%,0%,0%);stroke-opacity:1;stroke-dasharray:3,3;stroke-miterlimit:10;" d="M 309.066406 84.058594 L 309.066406 355.375 "/>
<path style="fill:none;stroke-width:0.75;stroke-linecap:round;stroke-linejoin:round;stroke:rgb(0%,0%,0%);stroke-opacity:1;stroke-miterlimit:10;" d="M 300.535156 410.910156 L 317.601562 410.910156 "/>
<path style="fill:none;stroke-width:0.75;stroke-linecap:round;stroke-linejoin:round;stroke:rgb(0%,0%,0%);stroke-opacity:1;stroke-miterlimit:10;" d="M 300.535156 84.058594 L 317.601562 84.058594 "/>
<path style="fill:none;stroke-width:0.75;stroke-linecap:round;stroke-linejoin:round;stroke:rgb(0%,0%,0%);stroke-opacity:1;stroke-miterlimit:10;" d="M 292 392.097656 L 326.132812 392.097656 L 326.132812 355.375 L 292 355.375 L 292 392.097656 "/>
<path style=" stroke:none;fill-rule:nonzero;fill:rgb(83.529412%,61.568627%,3.137255%);fill-opacity:1;" d="M 334.667969 392.097656 L 368.800781 392.097656 L 368.800781 352.351562 L 334.667969 352.351562 Z M 334.667969 392.097656 "/>
<path style="fill:none;stroke-width:2.25;stroke-linecap:butt;stroke-linejoin:round;stroke:rgb(0%,0%,0%);stroke-opacity:1;stroke-miterlimit:10;" d="M 334.667969 379.621094 L 368.800781 379.621094 "/>
<path style="fill:none;stroke-width:0.75;stroke-linecap:round;stroke-linejoin:round;stroke:rgb(0%,0%,0%);stroke-opacity:1;stroke-dasharray:3,3;stroke-miterlimit:10;" d="M 351.734375 408.179688 L 351.734375 392.097656 "/>
<path style="fill:none;stroke-width:0.75;stroke-linecap:round;stroke-linejoin:round;stroke:rgb(0%,0%,0%);stroke-opacity:1;stroke-dasharray:3,3;stroke-miterlimit:10;" d="M 351.734375 80.074219 L 351.734375 352.351562 "/>
<path style="fill:none;stroke-width:0.75;stroke-linecap:round;stroke-linejoin:round;stroke:rgb(0%,0%,0%);stroke-opacity:1;stroke-miterlimit:10;" d="M 343.199219 408.179688 L 360.265625 408.179688 "/>
<path style="fill:none;stroke-width:0.75;stroke-linecap:round;stroke-linejoin:round;stroke:rgb(0%,0%,0%);stroke-opacity:1;stroke-miterlimit:10;" d="M 343.199219 80.074219 L 360.265625 80.074219 "/>
<path style="fill:none;stroke-width:0.75;stroke-linecap:round;stroke-linejoin:round;stroke:rgb(0%,0%,0%);stroke-opacity:1;stroke-miterlimit:10;" d="M 334.667969 392.097656 L 368.800781 392.097656 L 368.800781 352.351562 L 334.667969 352.351562 L 334.667969 392.097656 "/>
<path style=" stroke:none;fill-rule:nonzero;fill:rgb(61.568627%,45.490196%,14.901961%);fill-opacity:1;" d="M 377.332031 390.132812 L 411.464844 390.132812 L 411.464844 341.269531 L 377.332031 341.269531 Z M 377.332031 390.132812 "/>
<path style="fill:none;stroke-width:2.25;stroke-linecap:butt;stroke-linejoin:round;stroke:rgb(0%,0%,0%);stroke-opacity:1;stroke-miterlimit:10;" d="M 377.332031 378.046875 L 411.464844 378.046875 "/>
<path style="fill:none;stroke-width:0.75;stroke-linecap:round;stroke-linejoin:round;stroke:rgb(0%,0%,0%);stroke-opacity:1;stroke-dasharray:3,3;stroke-miterlimit:10;" d="M 394.398438 410.910156 L 394.398438 390.132812 "/>
<path style="fill:none;stroke-width:0.75;stroke-linecap:round;stroke-linejoin:round;stroke:rgb(0%,0%,0%);stroke-opacity:1;stroke-dasharray:3,3;stroke-miterlimit:10;" d="M 394.398438 78.582031 L 394.398438 341.269531 "/>
<path style="fill:none;stroke-width:0.75;stroke-linecap:round;stroke-linejoin:round;stroke:rgb(0%,0%,0%);stroke-opacity:1;stroke-miterlimit:10;" d="M 385.867188 410.910156 L 402.933594 410.910156 "/>
<path style="fill:none;stroke-width:0.75;stroke-linecap:round;stroke-linejoin:round;stroke:rgb(0%,0%,0%);stroke-opacity:1;stroke-miterlimit:10;" d="M 385.867188 78.582031 L 402.933594 78.582031 "/>
<path style="fill:none;stroke-width:0.75;stroke-linecap:round;stroke-linejoin:round;stroke:rgb(0%,0%,0%);stroke-opacity:1;stroke-miterlimit:10;" d="M 377.332031 390.132812 L 411.464844 390.132812 L 411.464844 341.269531 L 377.332031 341.269531 L 377.332031 390.132812 "/>
<path style=" stroke:none;fill-rule:nonzero;fill:rgb(40%,40%,40%);fill-opacity:1;" d="M 420 394.128906 L 454.132812 394.128906 L 454.132812 354.347656 L 420 354.347656 Z M 420 394.128906 "/>
<path style="fill:none;stroke-width:2.25;stroke-linecap:butt;stroke-linejoin:round;stroke:rgb(0%,0%,0%);stroke-opacity:1;stroke-miterlimit:10;" d="M 420 382.910156 L 454.132812 382.910156 "/>
<path style="fill:none;stroke-width:0.75;stroke-linecap:round;stroke-linejoin:round;stroke:rgb(0%,0%,0%);stroke-opacity:1;stroke-dasharray:3,3;stroke-miterlimit:10;" d="M 437.066406 413.777344 L 437.066406 394.128906 "/>
<path style="fill:none;stroke-width:0.75;stroke-linecap:round;stroke-linejoin:round;stroke:rgb(0%,0%,0%);stroke-opacity:1;stroke-dasharray:3,3;stroke-miterlimit:10;" d="M 437.066406 87.589844 L 437.066406 354.347656 "/>
<path style="fill:none;stroke-width:0.75;stroke-linecap:round;stroke-linejoin:round;stroke:rgb(0%,0%,0%);stroke-opacity:1;stroke-miterlimit:10;" d="M 428.535156 413.777344 L 445.601562 413.777344 "/>
<path style="fill:none;stroke-width:0.75;stroke-linecap:round;stroke-linejoin:round;stroke:rgb(0%,0%,0%);stroke-opacity:1;stroke-miterlimit:10;" d="M 428.535156 87.589844 L 445.601562 87.589844 "/>
<path style="fill:none;stroke-width:0.75;stroke-linecap:round;stroke-linejoin:round;stroke:rgb(0%,0%,0%);stroke-opacity:1;stroke-miterlimit:10;" d="M 420 394.128906 L 454.132812 394.128906 L 454.132812 354.347656 L 420 354.347656 L 420 394.128906 "/>
<path style="fill:none;stroke-width:0.75;stroke-linecap:round;stroke-linejoin:round;stroke:rgb(0%,0%,0%);stroke-opacity:1;stroke-miterlimit:10;" d="M 95.734375 430.558594 L 437.066406 430.558594 "/>
<path style="fill:none;stroke-width:0.75;stroke-linecap:round;stroke-linejoin:round;stroke:rgb(0%,0%,0%);stroke-opacity:1;stroke-miterlimit:10;" d="M 95.734375 430.558594 L 95.734375 437.761719 "/>
<path style="fill:none;stroke-width:0.75;stroke-linecap:round;stroke-linejoin:round;stroke:rgb(0%,0%,0%);stroke-opacity:1;stroke-miterlimit:10;" d="M 138.398438 430.558594 L 138.398438 437.761719 "/>
<path style="fill:none;stroke-width:0.75;stroke-linecap:round;stroke-linejoin:round;stroke:rgb(0%,0%,0%);stroke-opacity:1;stroke-miterlimit:10;" d="M 181.066406 430.558594 L 181.066406 437.761719 "/>
<path style="fill:none;stroke-width:0.75;stroke-linecap:round;stroke-linejoin:round;stroke:rgb(0%,0%,0%);stroke-opacity:1;stroke-miterlimit:10;" d="M 223.734375 430.558594 L 223.734375 437.761719 "/>
<path style="fill:none;stroke-width:0.75;stroke-linecap:round;stroke-linejoin:round;stroke:rgb(0%,0%,0%);stroke-opacity:1;stroke-miterlimit:10;" d="M 266.398438 430.558594 L 266.398438 437.761719 "/>
<path style="fill:none;stroke-width:0.75;stroke-linecap:round;stroke-linejoin:round;stroke:rgb(0%,0%,0%);stroke-opacity:1;stroke-miterlimit:10;" d="M 309.066406 430.558594 L 309.066406 437.761719 "/>
<path style="fill:none;stroke-width:0.75;stroke-linecap:round;stroke-linejoin:round;stroke:rgb(0%,0%,0%);stroke-opacity:1;stroke-miterlimit:10;" d="M 351.734375 430.558594 L 351.734375 437.761719 "/>
<path style="fill:none;stroke-width:0.75;stroke-linecap:round;stroke-linejoin:round;stroke:rgb(0%,0%,0%);stroke-opacity:1;stroke-miterlimit:10;" d="M 394.398438 430.558594 L 394.398438 437.761719 "/>
<path style="fill:none;stroke-width:0.75;stroke-linecap:round;stroke-linejoin:round;stroke:rgb(0%,0%,0%);stroke-opacity:1;stroke-miterlimit:10;" d="M 437.066406 430.558594 L 437.066406 437.761719 "/>
<path style="fill:none;stroke-width:1;stroke-linecap:round;stroke-linejoin:miter;stroke:rgb(0%,0%,0%);stroke-opacity:1;stroke-miterlimit:2;" d="M 52.234375 443.980469 L 59.234375 443.980469 L 59.234375 454.980469 L 52.234375 454.980469 Z M 52.234375 443.980469 "/>
<path style="fill:none;stroke-width:1;stroke-linecap:round;stroke-linejoin:miter;stroke:rgb(0%,0%,0%);stroke-opacity:1;stroke-miterlimit:2;" d="M 62.234375 443.980469 L 69.234375 443.980469 L 69.234375 454.980469 L 62.234375 454.980469 Z M 62.234375 443.980469 "/>
<path style="fill:none;stroke-width:1;stroke-linecap:round;stroke-linejoin:miter;stroke:rgb(0%,0%,0%);stroke-opacity:1;stroke-miterlimit:2;" d="M 72.234375 443.980469 L 79.234375 443.980469 L 79.234375 454.980469 L 72.234375 454.980469 Z M 72.234375 443.980469 "/>
<path style="fill:none;stroke-width:1;stroke-linecap:round;stroke-linejoin:miter;stroke:rgb(0%,0%,0%);stroke-opacity:1;stroke-miterlimit:2;" d="M 82.234375 443.980469 L 89.234375 443.980469 L 89.234375 454.980469 L 82.234375 454.980469 Z M 82.234375 443.980469 "/>
<path style="fill:none;stroke-width:1;stroke-linecap:round;stroke-linejoin:miter;stroke:rgb(0%,0%,0%);stroke-opacity:1;stroke-miterlimit:2;" d="M 92.234375 443.980469 L 99.234375 443.980469 L 99.234375 454.980469 L 92.234375 454.980469 Z M 92.234375 443.980469 "/>
<path style="fill:none;stroke-width:1;stroke-linecap:round;stroke-linejoin:miter;stroke:rgb(0%,0%,0%);stroke-opacity:1;stroke-miterlimit:2;" d="M 102.234375 443.980469 L 109.234375 443.980469 L 109.234375 454.980469 L 102.234375 454.980469 Z M 102.234375 443.980469 "/>
<path style="fill:none;stroke-width:1;stroke-linecap:round;stroke-linejoin:miter;stroke:rgb(0%,0%,0%);stroke-opacity:1;stroke-miterlimit:2;" d="M 112.234375 443.980469 L 119.234375 443.980469 L 119.234375 454.980469 L 112.234375 454.980469 Z M 112.234375 443.980469 "/>
<path style="fill:none;stroke-width:1;stroke-linecap:round;stroke-linejoin:miter;stroke:rgb(0%,0%,0%);stroke-opacity:1;stroke-miterlimit:2;" d="M 122.234375 443.980469 L 129.234375 443.980469 L 129.234375 454.980469 L 122.234375 454.980469 Z M 122.234375 443.980469 "/>
<path style="fill:none;stroke-width:1;stroke-linecap:round;stroke-linejoin:miter;stroke:rgb(0%,0%,0%);stroke-opacity:1;stroke-miterlimit:2;" d="M 132.234375 443.980469 L 139.234375 443.980469 L 139.234375 454.980469 L 132.234375 454.980469 Z M 132.234375 443.980469 "/>
<path style="fill:none;stroke-width:1;stroke-linecap:round;stroke-linejoin:miter;stroke:rgb(0%,0%,0%);stroke-opacity:1;stroke-miterlimit:2;" d="M 180.234375 443.980469 L 187.234375 443.980469 L 187.234375 454.980469 L 180.234375 454.980469 Z M 180.234375 443.980469 "/>
<path style="fill:none;stroke-width:1;stroke-linecap:round;stroke-linejoin:miter;stroke:rgb(0%,0%,0%);stroke-opacity:1;stroke-miterlimit:2;" d="M 190.234375 443.980469 L 197.234375 443.980469 L 197.234375 454.980469 L 190.234375 454.980469 Z M 190.234375 443.980469 "/>
<path style="fill:none;stroke-width:1;stroke-linecap:round;stroke-linejoin:miter;stroke:rgb(0%,0%,0%);stroke-opacity:1;stroke-miterlimit:2;" d="M 200.234375 443.980469 L 207.234375 443.980469 L 207.234375 454.980469 L 200.234375 454.980469 Z M 200.234375 443.980469 "/>
<path style="fill:none;stroke-width:1;stroke-linecap:round;stroke-linejoin:miter;stroke:rgb(0%,0%,0%);stroke-opacity:1;stroke-miterlimit:2;" d="M 210.234375 443.980469 L 217.234375 443.980469 L 217.234375 454.980469 L 210.234375 454.980469 Z M 210.234375 443.980469 "/>
<path style="fill:none;stroke-width:1;stroke-linecap:round;stroke-linejoin:miter;stroke:rgb(0%,0%,0%);stroke-opacity:1;stroke-miterlimit:2;" d="M 220.234375 443.980469 L 227.234375 443.980469 L 227.234375 454.980469 L 220.234375 454.980469 Z M 220.234375 443.980469 "/>
<path style="fill:none;stroke-width:1;stroke-linecap:round;stroke-linejoin:miter;stroke:rgb(0%,0%,0%);stroke-opacity:1;stroke-miterlimit:2;" d="M 230.234375 443.980469 L 237.234375 443.980469 L 237.234375 454.980469 L 230.234375 454.980469 Z M 230.234375 443.980469 "/>
<path style="fill:none;stroke-width:1;stroke-linecap:round;stroke-linejoin:miter;stroke:rgb(0%,0%,0%);stroke-opacity:1;stroke-miterlimit:2;" d="M 240.234375 443.980469 L 247.234375 443.980469 L 247.234375 454.980469 L 240.234375 454.980469 Z M 240.234375 443.980469 "/>
<path style="fill:none;stroke-width:1;stroke-linecap:round;stroke-linejoin:miter;stroke:rgb(0%,0%,0%);stroke-opacity:1;stroke-miterlimit:2;" d="M 250.234375 443.980469 L 257.234375 443.980469 L 257.234375 454.980469 L 250.234375 454.980469 Z M 250.234375 443.980469 "/>
<path style="fill:none;stroke-width:1;stroke-linecap:round;stroke-linejoin:miter;stroke:rgb(0%,0%,0%);stroke-opacity:1;stroke-miterlimit:2;" d="M 260.234375 443.980469 L 267.234375 443.980469 L 267.234375 454.980469 L 260.234375 454.980469 Z M 260.234375 443.980469 "/>
<path style="fill:none;stroke-width:1;stroke-linecap:round;stroke-linejoin:miter;stroke:rgb(0%,0%,0%);stroke-opacity:1;stroke-miterlimit:2;" d="M 308.234375 443.980469 L 315.234375 443.980469 L 315.234375 454.980469 L 308.234375 454.980469 Z M 308.234375 443.980469 "/>
<path style="fill:none;stroke-width:1;stroke-linecap:round;stroke-linejoin:miter;stroke:rgb(0%,0%,0%);stroke-opacity:1;stroke-miterlimit:2;" d="M 318.234375 443.980469 L 325.234375 443.980469 L 325.234375 454.980469 L 318.234375 454.980469 Z M 318.234375 443.980469 "/>
<path style="fill:none;stroke-width:1;stroke-linecap:round;stroke-linejoin:miter;stroke:rgb(0%,0%,0%);stroke-opacity:1;stroke-miterlimit:2;" d="M 328.234375 443.980469 L 335.234375 443.980469 L 335.234375 454.980469 L 328.234375 454.980469 Z M 328.234375 443.980469 "/>
<path style="fill:none;stroke-width:1;stroke-linecap:round;stroke-linejoin:miter;stroke:rgb(0%,0%,0%);stroke-opacity:1;stroke-miterlimit:2;" d="M 338.234375 443.980469 L 345.234375 443.980469 L 345.234375 454.980469 L 338.234375 454.980469 Z M 338.234375 443.980469 "/>
<path style="fill:none;stroke-width:1;stroke-linecap:round;stroke-linejoin:miter;stroke:rgb(0%,0%,0%);stroke-opacity:1;stroke-miterlimit:2;" d="M 348.234375 443.980469 L 355.234375 443.980469 L 355.234375 454.980469 L 348.234375 454.980469 Z M 348.234375 443.980469 "/>
<path style="fill:none;stroke-width:1;stroke-linecap:round;stroke-linejoin:miter;stroke:rgb(0%,0%,0%);stroke-opacity:1;stroke-miterlimit:2;" d="M 358.234375 443.980469 L 365.234375 443.980469 L 365.234375 454.980469 L 358.234375 454.980469 Z M 358.234375 443.980469 "/>
<path style="fill:none;stroke-width:1;stroke-linecap:round;stroke-linejoin:miter;stroke:rgb(0%,0%,0%);stroke-opacity:1;stroke-miterlimit:2;" d="M 368.234375 443.980469 L 375.234375 443.980469 L 375.234375 454.980469 L 368.234375 454.980469 Z M 368.234375 443.980469 "/>
<path style="fill:none;stroke-width:1;stroke-linecap:round;stroke-linejoin:miter;stroke:rgb(0%,0%,0%);stroke-opacity:1;stroke-miterlimit:2;" d="M 378.234375 443.980469 L 385.234375 443.980469 L 385.234375 454.980469 L 378.234375 454.980469 Z M 378.234375 443.980469 "/>
<path style="fill:none;stroke-width:1;stroke-linecap:round;stroke-linejoin:miter;stroke:rgb(0%,0%,0%);stroke-opacity:1;stroke-miterlimit:2;" d="M 388.234375 443.980469 L 395.234375 443.980469 L 395.234375 454.980469 L 388.234375 454.980469 Z M 388.234375 443.980469 "/>
<path style="fill:none;stroke-width:0.75;stroke-linecap:round;stroke-linejoin:round;stroke:rgb(0%,0%,0%);stroke-opacity:1;stroke-miterlimit:10;" d="M 59.039062 423.386719 L 59.039062 113.347656 "/>
<path style="fill:none;stroke-width:0.75;stroke-linecap:round;stroke-linejoin:round;stroke:rgb(0%,0%,0%);stroke-opacity:1;stroke-miterlimit:10;" d="M 59.039062 423.386719 L 51.839844 423.386719 "/>
<path style="fill:none;stroke-width:0.75;stroke-linecap:round;stroke-linejoin:round;stroke:rgb(0%,0%,0%);stroke-opacity:1;stroke-miterlimit:10;" d="M 59.039062 345.875 L 51.839844 345.875 "/>
<path style="fill:none;stroke-width:0.75;stroke-linecap:round;stroke-linejoin:round;stroke:rgb(0%,0%,0%);stroke-opacity:1;stroke-miterlimit:10;" d="M 59.039062 268.367188 L 51.839844 268.367188 "/>
<path style="fill:none;stroke-width:0.75;stroke-linecap:round;stroke-linejoin:round;stroke:rgb(0%,0%,0%);stroke-opacity:1;stroke-miterlimit:10;" d="M 59.039062 190.855469 L 51.839844 190.855469 "/>
<path style="fill:none;stroke-width:0.75;stroke-linecap:round;stroke-linejoin:round;stroke:rgb(0%,0%,0%);stroke-opacity:1;stroke-miterlimit:10;" d="M 59.039062 113.347656 L 51.839844 113.347656 "/>
<path style="fill:none;stroke-width:1;stroke-linecap:round;stroke-linejoin:miter;stroke:rgb(0%,0%,0%);stroke-opacity:1;stroke-miterlimit:2;" d="M -426.886719 29.261719 L -419.886719 29.261719 L -419.886719 40.261719 L -426.886719 40.261719 Z M -426.886719 29.261719 " transform="matrix(0.000000000000000061,-1,1,0.000000000000000061,0,0)"/>
<path style="fill:none;stroke-width:1;stroke-linecap:round;stroke-linejoin:miter;stroke:rgb(0%,0%,0%);stroke-opacity:1;stroke-miterlimit:2;" d="M -349.375 29.261719 L -342.375 29.261719 L -342.375 40.261719 L -349.375 40.261719 Z M -349.375 29.261719 " transform="matrix(0.000000000000000061,-1,1,0.000000000000000061,0,0)"/>
<path style="fill:none;stroke-width:1;stroke-linecap:round;stroke-linejoin:miter;stroke:rgb(0%,0%,0%);stroke-opacity:1;stroke-miterlimit:2;" d="M -271.867188 29.261719 L -264.867188 29.261719 L -264.867188 40.261719 L -271.867188 40.261719 Z M -271.867188 29.261719 " transform="matrix(0.000000000000000061,-1,1,0.000000000000000061,0,0)"/>
<path style="fill:none;stroke-width:1;stroke-linecap:round;stroke-linejoin:miter;stroke:rgb(0%,0%,0%);stroke-opacity:1;stroke-miterlimit:2;" d="M -199.355469 29.261719 L -192.355469 29.261719 L -192.355469 40.261719 L -199.355469 40.261719 Z M -199.355469 29.261719 " transform="matrix(0.000000000000000061,-1,1,0.000000000000000061,0,0)"/>
<path style="fill:none;stroke-width:1;stroke-linecap:round;stroke-linejoin:miter;stroke:rgb(0%,0%,0%);stroke-opacity:1;stroke-miterlimit:2;" d="M -189.355469 29.261719 L -182.355469 29.261719 L -182.355469 40.261719 L -189.355469 40.261719 Z M -189.355469 29.261719 " transform="matrix(0.000000000000000061,-1,1,0.000000000000000061,0,0)"/>
<path style="fill:none;stroke-width:1;stroke-linecap:round;stroke-linejoin:miter;stroke:rgb(0%,0%,0%);stroke-opacity:1;stroke-miterlimit:2;" d="M -121.847656 29.261719 L -114.847656 29.261719 L -114.847656 40.261719 L -121.847656 40.261719 Z M -121.847656 29.261719 " transform="matrix(0.000000000000000061,-1,1,0.000000000000000061,0,0)"/>
<path style="fill:none;stroke-width:1;stroke-linecap:round;stroke-linejoin:miter;stroke:rgb(0%,0%,0%);stroke-opacity:1;stroke-miterlimit:2;" d="M -111.847656 29.261719 L -104.847656 29.261719 L -104.847656 40.261719 L -111.847656 40.261719 Z M -111.847656 29.261719 " transform="matrix(0.000000000000000061,-1,1,0.000000000000000061,0,0)"/>
<path style="fill:none;stroke-width:1;stroke-linecap:round;stroke-linejoin:miter;stroke:rgb(0%,0%,0%);stroke-opacity:1;stroke-miterlimit:2;" d="M 242.898438 23.519531 L 249.898438 23.519531 L 249.898438 34.519531 L 242.898438 34.519531 Z M 242.898438 23.519531 "/>
<path style="fill:none;stroke-width:1;stroke-linecap:round;stroke-linejoin:miter;stroke:rgb(0%,0%,0%);stroke-opacity:1;stroke-miterlimit:2;" d="M 252.898438 23.519531 L 259.898438 23.519531 L 259.898438 34.519531 L 252.898438 34.519531 Z M 252.898438 23.519531 "/>
<path style="fill:none;stroke-width:1;stroke-linecap:round;stroke-linejoin:miter;stroke:rgb(0%,0%,0%);stroke-opacity:1;stroke-miterlimit:2;" d="M 262.898438 23.519531 L 269.898438 23.519531 L 269.898438 34.519531 L 262.898438 34.519531 Z M 262.898438 23.519531 "/>
<path style="fill:none;stroke-width:1;stroke-linecap:round;stroke-linejoin:miter;stroke:rgb(0%,0%,0%);stroke-opacity:1;stroke-miterlimit:2;" d="M 272.898438 23.519531 L 279.898438 23.519531 L 279.898438 34.519531 L 272.898438 34.519531 Z M 272.898438 23.519531 "/>
<path style="fill:none;stroke-width:1;stroke-linecap:round;stroke-linejoin:miter;stroke:rgb(0%,0%,0%);stroke-opacity:1;stroke-miterlimit:2;" d="M 282.898438 23.519531 L 289.898438 23.519531 L 289.898438 34.519531 L 282.898438 34.519531 Z M 282.898438 23.519531 "/>
<path style="fill:none;stroke-width:0.75;stroke-linecap:round;stroke-linejoin:round;stroke:rgb(0%,0%,0%);stroke-opacity:1;stroke-miterlimit:10;" d="M 59.039062 430.558594 L 473.761719 430.558594 L 473.761719 59.039062 L 59.039062 59.039062 L 59.039062 430.558594 "/>
</g>
</svg>
