<?xml version="1.0" encoding="UTF-8"?>
<svg xmlns="http://www.w3.org/2000/svg" xmlns:xlink="http://www.w3.org/1999/xlink" width="504pt" height="504pt" viewBox="0 0 504 504" version="1.1">
<g id="surface47">
<rect x="0" y="0" width="504" height="504" style="fill:rgb(100%,100%,100%);fill-opacity:1;stroke:none;"/>
<path style=" stroke:none;fill-rule:nonzero;fill:rgb(10.588235%,61.960784%,46.666667%);fill-opacity:1;" d="M 78.667969 347.941406 L 112.800781 347.941406 L 112.800781 257.34375 L 78.667969 257.34375 Z M 78.667969 347.941406 "/>
<path style="fill:none;stroke-width:2.25;stroke-linecap:butt;stroke-linejoin:round;stroke:rgb(0%,0%,0%);stroke-opacity:1;stroke-miterlimit:10;" d="M 78.667969 308.671875 L 112.800781 308.671875 "/>
<path style="fill:none;stroke-width:0.75;stroke-linecap:round;stroke-linejoin:round;stroke:rgb(0%,0%,0%);stroke-opacity:1;stroke-dasharray:3,3;stroke-miterlimit:10;" d="M 95.734375 416.800781 L 95.734375 347.941406 "/>
<path style="fill:none;stroke-width:0.75;stroke-linecap:round;stroke-linejoin:round;stroke:rgb(0%,0%,0%);stroke-opacity:1;stroke-dasharray:3,3;stroke-miterlimit:10;" d="M 95.734375 73.613281 L 95.734375 257.34375 "/>
<path style="fill:none;stroke-width:0.75;stroke-linecap:round;stroke-linejoin:round;stroke:rgb(0%,0%,0%);stroke-opacity:1;stroke-miterlimit:10;" d="M 87.199219 416.800781 L 104.265625 416.800781 "/>
<path style="fill:none;stroke-width:0.75;stroke-linecap:round;stroke-linejoin:round;stroke:rgb(0%,0%,0%);stroke-opacity:1;stroke-miterlimit:10;" d="M 87.199219 73.613281 L 104.265625 73.613281 "/>
<path style="fill:none;stroke-width:0.75;stroke-linecap:round;stroke-linejoin:round;stroke:rgb(0%,0%,0%);stroke-opacity:1;stroke-miterlimit:10;" d="M 78.667969 347.941406 L 112.800781 347.941406 L 112.800781 257.34375 L 78.667969 257.34375 L 78.667969 347.941406 "/>
<path style=" stroke:none;fill-rule:nonzero;fill:rgb(75.686275%,40%,6.27451%);fill-opacity:1;" d="M 121.332031 346.320312 L 155.464844 346.320312 L 155.464844 257.574219 L 121.332031 257.574219 Z M 121.332031 346.320312 "/>
<path style="fill:none;stroke-width:2.25;stroke-linecap:butt;stroke-linejoin:round;stroke:rgb(0%,0%,0%);stroke-opacity:1;stroke-miterlimit:10;" d="M 121.332031 308.464844 L 155.464844 308.464844 "/>
<path style="fill:none;stroke-width:0.75;stroke-linecap:round;stroke-linejoin:round;stroke:rgb(0%,0%,0%);stroke-opacity:1;stroke-dasharray:3,3;stroke-miterlimit:10;" d="M 138.398438 412.722656 L 138.398438 346.320312 "/>
<path style="fill:none;stroke-width:0.75;stroke-linecap:round;stroke-linejoin:round;stroke:rgb(0%,0%,0%);stroke-opacity:1;stroke-dasharray:3,3;stroke-miterlimit:10;" d="M 138.398438 74.3125 L 138.398438 257.574219 "/>
<path style="fill:none;stroke-width:0.75;stroke-linecap:round;stroke-linejoin:round;stroke:rgb(0%,0%,0%);stroke-opacity:1;stroke-miterlimit:10;" d="M 129.867188 412.722656 L 146.933594 412.722656 "/>
<path style="fill:none;stroke-width:0.75;stroke-linecap:round;stroke-linejoin:round;stroke:rgb(0%,0%,0%);stroke-opacity:1;stroke-miterlimit:10;" d="M 129.867188 74.3125 L 146.933594 74.3125 "/>
<path style="fill:none;stroke-width:0.75;stroke-linecap:round;stroke-linejoin:round;stroke:rgb(0%,0%,0%);stroke-opacity:1;stroke-miterlimit:10;" d="M 121.332031 346.320312 L 155.464844 346.320312 L 155.464844 257.574219 L 121.332031 257.574219 L 121.332031 346.320312 "/>
<path style=" stroke:none;fill-rule:nonzero;fill:rgb(55.294118%,41.960784%,52.54902%);fill-opacity:1;" d="M 164 346.863281 L 198.132812 346.863281 L 198.132812 258.242188 L 164 258.242188 Z M 164 346.863281 "/>
<path style="fill:none;stroke-width:2.25;stroke-linecap:butt;stroke-linejoin:round;stroke:rgb(0%,0%,0%);stroke-opacity:1;stroke-miterlimit:10;" d="M 164 307.839844 L 198.132812 307.839844 "/>
<path style="fill:none;stroke-width:0.75;stroke-linecap:round;stroke-linejoin:round;stroke:rgb(0%,0%,0%);stroke-opacity:1;stroke-dasharray:3,3;stroke-miterlimit:10;" d="M 181.066406 413.171875 L 181.066406 346.863281 "/>
<path style="fill:none;stroke-width:0.75;stroke-linecap:round;stroke-linejoin:round;stroke:rgb(0%,0%,0%);stroke-opacity:1;stroke-dasharray:3,3;stroke-miterlimit:10;" d="M 181.066406 76.195312 L 181.066406 258.242188 "/>
<path style="fill:none;stroke-width:0.75;stroke-linecap:round;stroke-linejoin:round;stroke:rgb(0%,0%,0%);stroke-opacity:1;stroke-miterlimit:10;" d="M 172.535156 413.171875 L 189.601562 413.171875 "/>
<path style="fill:none;stroke-width:0.75;stroke-linecap:round;stroke-linejoin:round;stroke:rgb(0%,0%,0%);stroke-opacity:1;stroke-miterlimit:10;" d="M 172.535156 76.195312 L 189.601562 76.195312 "/>
<path style="fill:none;stroke-width:0.75;stroke-linecap:round;stroke-linejoin:round;stroke:rgb(0%,0%,0%);stroke-opacity:1;stroke-miterlimit:10;" d="M 164 346.863281 L 198.132812 346.863281 L 198.132812 258.242188 L 164 258.242188 L 164 346.863281 "/>
<path style=" stroke:none;fill-rule:nonzero;fill:rgb(73.72549%,26.27451%,60%);fill-opacity:1;" d="M 206.667969 347.558594 L 240.800781 347.558594 L 240.800781 258.023438 L 206.667969 258.023438 Z M 206.667969 347.558594 "/>
<path style="fill:none;stroke-width:2.25;stroke-linecap:butt;stroke-linejoin:round;stroke:rgb(0%,0%,0%);stroke-opacity:1;stroke-miterlimit:10;" d="M 206.667969 308.445312 L 240.800781 308.445312 "/>
<path style="fill:none;stroke-width:0.75;stroke-linecap:round;stroke-linejoin:round;stroke:rgb(0%,0%,0%);stroke-opacity:1;stroke-dasharray:3,3;stroke-miterlimit:10;" d="M 223.734375 415.179688 L 223.734375 347.558594 "/>
<path style="fill:none;stroke-width:0.75;stroke-linecap:round;stroke-linejoin:round;stroke:rgb(0%,0%,0%);stroke-opacity:1;stroke-dasharray:3,3;stroke-miterlimit:10;" d="M 223.734375 75.519531 L 223.734375 258.023438 "/>
<path style="fill:none;stroke-width:0.75;stroke-linecap:round;stroke-linejoin:round;stroke:rgb(0%,0%,0%);stroke-opacity:1;stroke-miterlimit:10;" d="M 215.199219 415.179688 L 232.265625 415.179688 "/>
<path style="fill:none;stroke-width:0.75;stroke-linecap:round;stroke-linejoin:round;stroke:rgb(0%,0%,0%);stroke-opacity:1;stroke-miterlimit:10;" d="M 215.199219 75.519531 L 232.265625 75.519531 "/>
<path style="fill:none;stroke-width:0.75;stroke-linecap:round;stroke-linejoin:round;stroke:rgb(0%,0%,0%);stroke-opacity:1;stroke-miterlimit:10;" d="M 206.667969 347.558594 L 240.800781 347.558594 L 240.800781 258.023438 L 206.667969 258.023438 L 206.667969 347.558594 "/>
<path style=" stroke:none;fill-rule:nonzero;fill:rgb(65.098039%,40.392157%,32.54902%);fill-opacity:1;" d="M 249.332031 347.648438 L 283.464844 347.648438 L 283.464844 257.5625 L 249.332031 257.5625 Z M 249.332031 347.648438 "/>
<path style="fill:none;stroke-width:2.25;stroke-linecap:butt;stroke-linejoin:round;stroke:rgb(0%,0%,0%);stroke-opacity:1;stroke-miterlimit:10;" d="M 249.332031 308.28125 L 283.464844 308.28125 "/>
<path style="fill:none;stroke-width:0.75;stroke-linecap:round;stroke-linejoin:round;stroke:rgb(0%,0%,0%);stroke-opacity:1;stroke-dasharray:3,3;stroke-miterlimit:10;" d="M 266.398438 412.296875 L 266.398438 347.648438 "/>
<path style="fill:none;stroke-width:0.75;stroke-linecap:round;stroke-linejoin:round;stroke:rgb(0%,0%,0%);stroke-opacity:1;stroke-dasharray:3,3;stroke-miterlimit:10;" d="M 266.398438 74.035156 L 266.398438 257.5625 "/>
<path style="fill:none;stroke-width:0.75;stroke-linecap:round;stroke-linejoin:round;stroke:rgb(0%,0%,0%);stroke-opacity:1;stroke-miterlimit:10;" d="M 257.867188 412.296875 L 274.933594 412.296875 "/>
<path style="fill:none;stroke-width:0.75;stroke-linecap:round;stroke-linejoin:round;stroke:rgb(0%,0%,0%);stroke-opacity:1;stroke-miterlimit:10;" d="M 257.867188 74.035156 L 274.933594 74.035156 "/>
<path style="fill:none;stroke-width:0.75;stroke-linecap:round;stroke-linejoin:round;stroke:rgb(0%,0%,0%);stroke-opacity:1;stroke-miterlimit:10;" d="M 249.332031 347.648438 L 283.464844 347.648438 L 283.464844 257.5625 L 249.332031 257.5625 L 249.332031 347.648438 "/>
<path style=" stroke:none;fill-rule:nonzero;fill:rgb(58.823529%,65.490196%,7.45098%);fill-opacity:1;" d="M 292 346.628906 L 326.132812 346.628906 L 326.132812 258.953125 L 292 258.953125 Z M 292 346.628906 "/>
<path style="fill:none;stroke-width:2.25;stroke-linecap:butt;stroke-linejoin:round;stroke:rgb(0%,0%,0%);stroke-opacity:1;stroke-miterlimit:10;" d="M 292 307.828125 L 326.132812 307.828125 "/>
<path style="fill:none;stroke-width:0.75;stroke-linecap:round;stroke-linejoin:round;stroke:rgb(0%,0%,0%);stroke-opacity:1;stroke-dasharray:3,3;stroke-miterlimit:10;" d="M 309.066406 411.863281 L 309.066406 346.628906 "/>
<path style="fill:none;stroke-width:0.75;stroke-linecap:round;stroke-linejoin:round;stroke:rgb(0%,0%,0%);stroke-opacity:1;stroke-dasharray:3,3;stroke-miterlimit:10;" d="M 309.066406 72.976562 L 309.066406 258.953125 "/>
<path style="fill:none;stroke-width:0.75;stroke-linecap:round;stroke-linejoin:round;stroke:rgb(0%,0%,0%);stroke-opacity:1;stroke-miterlimit:10;" d="M 300.535156 411.863281 L 317.601562 411.863281 "/>
<path style="fill:none;stroke-width:0.75;stroke-linecap:round;stroke-linejoin:round;stroke:rgb(0%,0%,0%);stroke-opacity:1;stroke-miterlimit:10;" d="M 300.535156 72.976562 L 317.601562 72.976562 "/>
<path style="fill:none;stroke-width:0.75;stroke-linecap:round;stroke-linejoin:round;stroke:rgb(0%,0%,0%);stroke-opacity:1;stroke-miterlimit:10;" d="M 292 346.628906 L 326.132812 346.628906 L 326.132812 258.953125 L 292 258.953125 L 292 346.628906 "/>
<path style=" stroke:none;fill-rule:nonzero;fill:rgb(83.529412%,61.568627%,3.137255%);fill-opacity:1;" d="M 334.667969 347.335938 L 368.800781 347.335938 L 368.800781 257.417969 L 334.667969 257.417969 Z M 334.667969 347.335938 "/>
<path style="fill:none;stroke-width:2.25;stroke-linecap:butt;stroke-linejoin:round;stroke:rgb(0%,0%,0%);stroke-opacity:1;stroke-miterlimit:10;" d="M 334.667969 308.5625 L 368.800781 308.5625 "/>
<path style="fill:none;stroke-width:0.75;stroke-linecap:round;stroke-linejoin:round;stroke:rgb(0%,0%,0%);stroke-opacity:1;stroke-dasharray:3,3;stroke-miterlimit:10;" d="M 351.734375 414.550781 L 351.734375 347.335938 "/>
<path style="fill:none;stroke-width:0.75;stroke-linecap:round;stroke-linejoin:round;stroke:rgb(0%,0%,0%);stroke-opacity:1;stroke-dasharray:3,3;stroke-miterlimit:10;" d="M 351.734375 74.515625 L 351.734375 257.417969 "/>
<path style="fill:none;stroke-width:0.75;stroke-linecap:round;stroke-linejoin:round;stroke:rgb(0%,0%,0%);stroke-opacity:1;stroke-miterlimit:10;" d="M 343.199219 414.550781 L 360.265625 414.550781 "/>
<path style="fill:none;stroke-width:0.75;stroke-linecap:round;stroke-linejoin:round;stroke:rgb(0%,0%,0%);stroke-opacity:1;stroke-miterlimit:10;" d="M 343.199219 74.515625 L 360.265625 74.515625 "/>
<path style="fill:none;stroke-width:0.75;stroke-linecap:round;stroke-linejoin:round;stroke:rgb(0%,0%,0%);stroke-opacity:1;stroke-miterlimit:10;" d="M 334.667969 347.335938 L 368.800781 347.335938 L 368.800781 257.417969 L 334.667969 257.417969 L 334.667969 347.335938 "/>
<path style=" stroke:none;fill-rule:nonzero;fill:rgb(61.568627%,45.490196%,14.901961%);fill-opacity:1;" d="M 377.332031 347.949219 L 411.464844 347.949219 L 411.464844 258.140625 L 377.332031 258.140625 Z M 377.332031 347.949219 "/>
<path style="fill:none;stroke-width:2.25;stroke-linecap:butt;stroke-linejoin:round;stroke:rgb(0%,0%,0%);stroke-opacity:1;stroke-miterlimit:10;" d="M 377.332031 307.882812 L 411.464844 307.882812 "/>
<path style="fill:none;stroke-width:0.75;stroke-linecap:round;stroke-linejoin:round;stroke:rgb(0%,0%,0%);stroke-opacity:1;stroke-dasharray:3,3;stroke-miterlimit:10;" d="M 394.398438 411.457031 L 394.398438 347.949219 "/>
<path style="fill:none;stroke-width:0.75;stroke-linecap:round;stroke-linejoin:round;stroke:rgb(0%,0%,0%);stroke-opacity:1;stroke-dasharray:3,3;stroke-miterlimit:10;" d="M 394.398438 75.125 L 394.398438 258.140625 "/>
<path style="fill:none;stroke-width:0.75;stroke-linecap:round;stroke-linejoin:round;stroke:rgb(0%,0%,0%);stroke-opacity:1;stroke-miterlimit:10;" d="M 385.867188 411.457031 L 402.933594 411.457031 "/>
<path style="fill:none;stroke-width:0.75;stroke-linecap:round;stroke-linejoin:round;stroke:rgb(0%,0%,0%);stroke-opacity:1;stroke-miterlimit:10;" d="M 385.867188 75.125 L 402.933594 75.125 "/>
<path style="fill:none;stroke-width:0.75;stroke-linecap:round;stroke-linejoin:round;stroke:rgb(0%,0%,0%);stroke-opacity:1;stroke-miterlimit:10;" d="M 377.332031 347.949219 L 411.464844 347.949219 L 411.464844 258.140625 L 377.332031 258.140625 L 377.332031 347.949219 "/>
<path style=" stroke:none;fill-rule:nonzero;fill:rgb(40%,40%,40%);fill-opacity:1;" d="M 420 346.886719 L 454.132812 346.886719 L 454.132812 258.792969 L 420 258.792969 Z M 420 346.886719 "/>
<path style="fill:none;stroke-width:2.25;stroke-linecap:butt;stroke-linejoin:round;stroke:rgb(0%,0%,0%);stroke-opacity:1;stroke-miterlimit:10;" d="M 420 308.265625 L 454.132812 308.265625 "/>
<path style="fill:none;stroke-width:0.75;stroke-linecap:round;stroke-linejoin:round;stroke:rgb(0%,0%,0%);stroke-opacity:1;stroke-dasharray:3,3;stroke-miterlimit:10;" d="M 437.066406 416.378906 L 437.066406 346.886719 "/>
<path style="fill:none;stroke-width:0.75;stroke-linecap:round;stroke-linejoin:round;stroke:rgb(0%,0%,0%);stroke-opacity:1;stroke-dasharray:3,3;stroke-miterlimit:10;" d="M 437.066406 72.800781 L 437.066406 258.792969 "/>
<path style="fill:none;stroke-width:0.75;stroke-linecap:round;stroke-linejoin:round;stroke:rgb(0%,0%,0%);stroke-opacity:1;stroke-miterlimit:10;" d="M 428.535156 416.378906 L 445.601562 416.378906 "/>
<path style="fill:none;stroke-width:0.75;stroke-linecap:round;stroke-linejoin:round;stroke:rgb(0%,0%,0%);stroke-opacity:1;stroke-miterlimit:10;" d="M 428.535156 72.800781 L 445.601562 72.800781 "/>
<path style="fill:none;stroke-width:0.75;stroke-linecap:round;stroke-linejoin:round;stroke:rgb(0%,0%,0%);stroke-opacity:1;stroke-miterlimit:10;" d="M 420 346.886719 L 454.132812 346.886719 L 454.132812 258.792969 L 420 258.792969 L 420 346.886719 "/>
<path style="fill:none;stroke-width:0.75;stroke-linecap:round;stroke-linejoin:round;stroke:rgb(0%,0%,0%);stroke-opacity:1;stroke-miterlimit:10;" d="M 95.734375 430.558594 L 437.066406 430.558594 "/>
<path style="fill:none;stroke-width:0.75;stroke-linecap:round;stroke-linejoin:round;stroke:rgb(0%,0%,0%);stroke-opacity:1;stroke-miterlimit:10;" d="M 95.734375 430.558594 L 95.734375 437.761719 "/>
<path style="fill:none;stroke-width:0.75;stroke-linecap:round;stroke-linejoin:round;stroke:rgb(0%,0%,0%);stroke-opacity:1;stroke-miterlimit:10;" d="M 138.398438 430.558594 L 138.398438 437.761719 "/>
<path style="fill:none;stroke-width:0.75;stroke-linecap:round;stroke-linejoin:round;stroke:rgb(0%,0%,0%);stroke-opacity:1;stroke-miterlimit:10;" d="M 181.066406 430.558594 L 181.066406 437.761719 "/>
<path style="fill:none;stroke-width:0.75;stroke-linecap:round;stroke-linejoin:round;stroke:rgb(0%,0%,0%);stroke-opacity:1;stroke-miterlimit:10;" d="M 223.734375 430.558594 L 223.734375 437.761719 "/>
<path style="fill:none;stroke-width:0.75;stroke-linecap:round;stroke-linejoin:round;stroke:rgb(0%,0%,0%);stroke-opacity:1;stroke-miterlimit:10;" d="M 266.398438 430.558594 L 266.398438 437.761719 "/>
<path style="fill:none;stroke-width:0.75;stroke-linecap:round;stroke-linejoin:round;stroke:rgb(0%,0%,0%);stroke-opacity:1;stroke-miterlimit:10;" d="M 309.066406 430.558594 L 309.066406 437.761719 "/>
<path style="fill:none;stroke-width:0.75;stroke-linecap:round;stroke-linejoin:round;stroke:rgb(0%,0%,0%);stroke-opacity:1;stroke-miterlimit:10;" d="M 351.734375 430.558594 L 351.734375 437.761719 "/>
<path style="fill:none;stroke-width:0.75;stroke-linecap:round;stroke-linejoin:round;stroke:rgb(0%,0%,0%);stroke-opacity:1;stroke-miterlimit:10;" d="M 394.398438 430.558594 L 394.398438 437.761719 "/>
<path style="fill:none;stroke-width:0.75;stroke-linecap:round;stroke-linejoin:round;stroke:rgb(0%,0%,0%);stroke-opacity:1;stroke-miterlimit:10;" d="M 437.066406 430.558594 L 437.066406 437.761719 "/>
<path style="fill:none;stroke-width:1;stroke-linecap:round;stroke-linejoin:miter;stroke:rgb(0%,0%,0%);stroke-opacity:1;stroke-miterlimit:2;" d="M 52.234375 443.980469 L 59.234375 443.980469 L 59.234375 454.980469 L 52.234375 454.980469 Z M 52.234375 443.980469 "/>
<path style="fill:none;stroke-width:1;stroke-linecap:round;stroke-linejoin:miter;stroke:rgb(0%,0%,0%);stroke-opacity:1;stroke-miterlimit:2;" d="M 62.234375 443.980469 L 69.234375 443.980469 L 69.234375 454.980469 L 62.234375 454.980469 Z M 62.234375 443.980469 "/>
<path style="fill:none;stroke-width:1;stroke-linecap:round;stroke-linejoin:miter;stroke:rgb(0%,0%,0%);stroke-opacity:1;stroke-miterlimit:2;" d="M 72.234375 443.980469 L 79.234375 443.980469 L 79.234375 454.980469 L 72.234375 454.980469 Z M 72.234375 443.980469 "/>
<path style="fill:none;stroke-width:1;stroke-linecap:round;stroke-linejoin:miter;stroke:rgb(0%,0%,0%);stroke-opacity:1;stroke-miterlimit:2;" d="M 82.234375 443.980469 L 89.234375 443.980469 L 89.234375 454.980469 L 82.234375 454.980469 Z M 82.234375 443.980469 "/>
<path style="fill:none;stroke-width:1;stroke-linecap:round;stroke-linejoin:miter;stroke:rgb(0%,0%,0%);stroke-opacity:1;stroke-miterlimit:2;" d="M 92.234375 443.980469 L 99.234375 443.980469 L 99.234375 454.980469 L 92.234375 454.980469 Z M 92.234375 443.980469 "/>
<path style="fill:none;stroke-width:1;stroke-linecap:round;stroke-linejoin:miter;stroke:rgb(0%,0%,0%);stroke-opacity:1;stroke-miterlimit:2;" d="M 102.234375 443.980469 L 109.234375 443.980469 L 109.234375 454.980469 L 102.234375 454.980469 Z M 102.234375 443.980469 "/>
<path style="fill:none;stroke-width:1;stroke-linecap:round;stroke-linejoin:miter;stroke:rgb(0%,0%,0%);stroke-opacity:1;stroke-miterlimit:2;" d="M 112.234375 443.980469 L 119.234375 443.980469 L 119.234375 454.980469 L 112.234375 454.980469 Z M 112.234375 443.980469 "/>
<path style="fill:none;stroke-width:1;stroke-linecap:round;stroke-linejoin:miter;stroke:rgb(0%,0%,0%);stroke-opacity:1;stroke-miterlimit:2;" d="M 122.234375 443.980469 L 129.234375 443.980469 L 129.234375 454.980469 L 122.234375 454.980469 Z M 122.234375 443.980469 "/>
<path style="fill:none;stroke-width:1;stroke-linecap:round;stroke-linejoin:miter;stroke:rgb(0%,0%,0%);stroke-opacity:1;stroke-miterlimit:2;" d="M 132.234375 443.980469 L 139.234375 443.980469 L 139.234375 454.980469 L 132.234375 454.980469 Z M 132.234375 443.980469 "/>
<path style="fill:none;stroke-width:1;stroke-linecap:round;stroke-linejoin:miter;stroke:rgb(0%,0%,0%);stroke-opacity:1;stroke-miterlimit:2;" d="M 180.234375 443.980469 L 187.234375 443.980469 L 187.234375 454.980469 L 180.234375 454.980469 Z M 180.234375 443.980469 "/>
<path style="fill:none;stroke-width:1;stroke-linecap:round;stroke-linejoin:miter;stroke:rgb(0%,0%,0%);stroke-opacity:1;stroke-miterlimit:2;" d="M 190.234375 443.980469 L 197.234375 443.980469 L 197.234375 454.980469 L 190.234375 454.980469 Z M 190.234375 443.980469 "/>
<path style="fill:none;stroke-width:1;stroke-linecap:round;stroke-linejoin:miter;stroke:rgb(0%,0%,0%);stroke-opacity:1;stroke-miterlimit:2;" d="M 200.234375 443.980469 L 207.234375 443.980469 L 207.234375 454.980469 L 200.234375 454.980469 Z M 200.234375 443.980469 "/>
<path style="fill:none;stroke-width:1;stroke-linecap:round;stroke-linejoin:miter;stroke:rgb(0%,0%,0%);stroke-opacity:1;stroke-miterlimit:2;" d="M 210.234375 443.980469 L 217.234375 443.980469 L 217.234375 454.980469 L 210.234375 454.980469 Z M 210.234375 443.980469 "/>
<path style="fill:none;stroke-width:1;stroke-linecap:round;stroke-linejoin:miter;stroke:rgb(0%,0%,0%);stroke-opacity:1;stroke-miterlimit:2;" d="M 220.234375 443.980469 L 227.234375 443.980469 L 227.234375 454.980469 L 220.234375 454.980469 Z M 220.234375 443.980469 "/>
<path style="fill:none;stroke-width:1;stroke-linecap:round;stroke-linejoin:miter;stroke:rgb(0%,0%,0%);stroke-opacity:1;stroke-miterlimit:2;" d="M 230.234375 443.980469 L 237.234375 443.980469 L 237.234375 454.980469 L 230.234375 454.980469 Z M 230.234375 443.980469 "/>
<path style="fill:none;stroke-width:1;stroke-linecap:round;stroke-linejoin:miter;stroke:rgb(0%,0%,0%);stroke-opacity:1;stroke-miterlimit:2;" d="M 240.234375 443.980469 L 247.234375 443.980469 L 247.234375 454.980469 L 240.234375 454.980469 Z M 240.234375 443.980469 "/>
<path style="fill:none;stroke-width:1;stroke-linecap:round;stroke-linejoin:miter;stroke:rgb(0%,0%,0%);stroke-opacity:1;stroke-miterlimit:2;" d="M 250.234375 443.980469 L 257.234375 443.980469 L 257.234375 454.980469 L 250.234375 454.980469 Z M 250.234375 443.980469 "/>
<path style="fill:none;stroke-width:1;stroke-linecap:round;stroke-linejoin:miter;stroke:rgb(0%,0%,0%);stroke-opacity:1;stroke-miterlimit:2;" d="M 260.234375 443.980469 L 267.234375 443.980469 L 267.234375 454.980469 L 260.234375 454.980469 Z M 260.234375 443.980469 "/>
<path style="fill:none;stroke-width:1;stroke-linecap:round;stroke-linejoin:miter;stroke:rgb(0%,0%,0%);stroke-opacity:1;stroke-miterlimit:2;" d="M 308.234375 443.980469 L 315.234375 443.980469 L 315.234375 454.980469 L 308.234375 454.980469 Z M 308.234375 443.980469 "/>
<path style="fill:none;stroke-width:1;stroke-linecap:round;stroke-linejoin:miter;stroke:rgb(0%,0%,0%);stroke-opacity:1;stroke-miterlimit:2;" d="M 318.234375 443.980469 L 325.234375 443.980469 L 325.234375 454.980469 L 318.234375 454.980469 Z M 318.234375 443.980469 "/>
<path style="fill:none;stroke-width:1;stroke-linecap:round;stroke-linejoin:miter;stroke:rgb(0%,0%,0%);stroke-opacity:1;stroke-miterlimit:2;" d="M 328.234375 443.980469 L 335.234375 443.980469 L 335.234375 454.980469 L 328.234375 454.980469 Z M 328.234375 443.980469 "/>
<path style="fill:none;stroke-width:1;stroke-linecap:round;stroke-linejoin:miter;stroke:rgb(0%,0%,0%);stroke-opacity:1;stroke-miterlimit:2;" d="M 338.234375 443.980469 L 345.234375 443.980469 L 345.234375 454.980469 L 338.234375 454.980469 Z M 338.234375 443.980469 "/>
<path style="fill:none;stroke-width:1;stroke-linecap:round;stroke-linejoin:miter;stroke:rgb(0%,0%,0%);stroke-opacity:1;stroke-miterlimit:2;" d="M 348.234375 443.980469 L 355.234375 443.980469 L 355.234375 454.980469 L 348.234375 454.980469 Z M 348.234375 443.980469 "/>
<path style="fill:none;stroke-width:1;stroke-linecap:round;stroke-linejoin:miter;stroke:rgb(0%,0%,0%);stroke-opacity:1;stroke-miterlimit:2;" d="M 358.234375 443.980469 L 365.234375 443.980469 L 365.234375 454.980469 L 358.234375 454.980469 Z M 358.234375 443.980469 "/>
<path style="fill:none;stroke-width:1;stroke-linecap:round;stroke-linejoin:miter;stroke:rgb(0%,0%,0%);stroke-opacity:1;stroke-miterlimit:2;" d="M 368.234375 443.980469 L 375.234375 443.980469 L 375.234375 454.980469 L 368.234375 454.980469 Z M 368.234375 443.980469 "/>
<path style="fill:none;stroke-width:1;stroke-linecap:round;stroke-linejoin:miter;stroke:rgb(0%,0%,0%);stroke-opacity:1;stroke-miterlimit:2;" d="M 378.234375 443.980469 L 385.234375 443.980469 L 385.234375 454.980469 L 378.234375 454.980469 Z M 378.234375 443.980469 "/>
<path style="fill:none;stroke-width:1;stroke-linecap:round;stroke-linejoin:miter;stroke:rgb(0%,0%,0%);stroke-opacity:1;stroke-miterlimit:2;" d="M 388.234375 443.980469 L 395.234375 443.980469 L 395.234375 454.980469 L 388.234375 454.980469 Z M 388.234375 443.980469 "/>
<path style="fill:none;stroke-width:0.75;stroke-linecap:round;stroke-linejoin:round;stroke:rgb(0%,0%,0%);stroke-opacity:1;stroke-miterlimit:10;" d="M 59.039062 377.195312 L 59.039062 104.304688 "/>
<path style="fill:none;stroke-width:0.75;stroke-linecap:round;stroke-linejoin:round;stroke:rgb(0%,0%,0%);stroke-opacity:1;stroke-miterlimit:10;" d="M 59.039062 377.195312 L 51.839844 377.195312 "/>
<path style="fill:none;stroke-width:0.75;stroke-linecap:round;stroke-linejoin:round;stroke:rgb(0%,0%,0%);stroke-opacity:1;stroke-miterlimit:10;" d="M 59.039062 322.617188 L 51.839844 322.617188 "/>
<path style="fill:none;stroke-width:0.75;stroke-linecap:round;stroke-linejoin:round;stroke:rgb(0%,0%,0%);stroke-opacity:1;stroke-miterlimit:10;" d="M 59.039062 268.039062 L 51.839844 268.039062 "/>
<path style="fill:none;stroke-width:0.75;stroke-linecap:round;stroke-linejoin:round;stroke:rgb(0%,0%,0%);stroke-opacity:1;stroke-miterlimit:10;" d="M 59.039062 213.460938 L 51.839844 213.460938 "/>
<path style="fill:none;stroke-width:0.75;stroke-linecap:round;stroke-linejoin:round;stroke:rgb(0%,0%,0%);stroke-opacity:1;stroke-miterlimit:10;" d="M 59.039062 158.882812 L 51.839844 158.882812 "/>
<path style="fill:none;stroke-width:0.75;stroke-linecap:round;stroke-linejoin:round;stroke:rgb(0%,0%,0%);stroke-opacity:1;stroke-miterlimit:10;" d="M 59.039062 104.304688 L 51.839844 104.304688 "/>
<path style="fill:none;stroke-width:1;stroke-linecap:round;stroke-linejoin:miter;stroke:rgb(0%,0%,0%);stroke-opacity:1;stroke-miterlimit:2;" d="M -380.695312 29.261719 L -373.695312 29.261719 L -373.695312 40.261719 L -380.695312 40.261719 Z M -380.695312 29.261719 " transform="matrix(0.000000000000000061,-1,1,0.000000000000000061,0,0)"/>
<path style="fill:none;stroke-width:1;stroke-linecap:round;stroke-linejoin:miter;stroke:rgb(0%,0%,0%);stroke-opacity:1;stroke-miterlimit:2;" d="M -326.117188 29.261719 L -319.117188 29.261719 L -319.117188 40.261719 L -326.117188 40.261719 Z M -326.117188 29.261719 " transform="matrix(0.000000000000000061,-1,1,0.000000000000000061,0,0)"/>
<path style="fill:none;stroke-width:1;stroke-linecap:round;stroke-linejoin:miter;stroke:rgb(0%,0%,0%);stroke-opacity:1;stroke-miterlimit:2;" d="M -271.539062 29.261719 L -264.539062 29.261719 L -264.539062 40.261719 L -271.539062 40.261719 Z M -271.539062 29.261719 " transform="matrix(0.000000000000000061,-1,1,0.000000000000000061,0,0)"/>
<path style="fill:none;stroke-width:1;stroke-linecap:round;stroke-linejoin:miter;stroke:rgb(0%,0%,0%);stroke-opacity:1;stroke-miterlimit:2;" d="M -216.960938 29.261719 L -209.960938 29.261719 L -209.960938 40.261719 L -216.960938 40.261719 Z M -216.960938 29.261719 " transform="matrix(0.000000000000000061,-1,1,0.000000000000000061,0,0)"/>
<path style="fill:none;stroke-width:1;stroke-linecap:round;stroke-linejoin:miter;stroke:rgb(0%,0%,0%);stroke-opacity:1;stroke-miterlimit:2;" d="M -167.382812 29.261719 L -160.382812 29.261719 L -160.382812 40.261719 L -167.382812 40.261719 Z M -167.382812 29.261719 " transform="matrix(0.000000000000000061,-1,1,0.000000000000000061,0,0)"/>
<path style="fill:none;stroke-width:1;stroke-linecap:round;stroke-linejoin:miter;stroke:rgb(0%,0%,0%);stroke-opacity:1;stroke-miterlimit:2;" d="M -157.382812 29.261719 L -150.382812 29.261719 L -150.382812 40.261719 L -157.382812 40.261719 Z M -157.382812 29.261719 " transform="matrix(0.000000000000000061,-1,1,0.000000000000000061,0,0)"/>
<path style="fill:none;stroke-width:1;stroke-linecap:round;stroke-linejoin:miter;stroke:rgb(0%,0%,0%);stroke-opacity:1;stroke-miterlimit:2;" d="M -112.804688 29.261719 L -105.804688 29.261719 L -105.804688 40.261719 L -112.804688 40.261719 Z M -112.804688 29.261719 " transform="matrix(0.000000000000000061,-1,1,0.000000000000000061,0,0)"/>
<path style="fill:none;stroke-width:1;stroke-linecap:round;stroke-linejoin:miter;stroke:rgb(0%,0%,0%);stroke-opacity:1;stroke-miterlimit:2;" d="M -102.804688 29.261719 L -95.804688 29.261719 L -95.804688 40.261719 L -102.804688 40.261719 Z M -102.804688 29.261719 " transform="matrix(0.000000000000000061,-1,1,0.000000000000000061,0,0)"/>
<path style="fill:none;stroke-width:1;stroke-linecap:round;stroke-linejoin:miter;stroke:rgb(0%,0%,0%);stroke-opacity:1;stroke-miterlimit:2;" d="M 242.898438 23.519531 L 249.898438 23.519531 L 249.898438 34.519531 L 242.898438 34.519531 Z M 242.898438 23.519531 "/>
<path style="fill:none;stroke-width:1;stroke-linecap:round;stroke-linejoin:miter;stroke:rgb(0%,0%,0%);stroke-opacity:1;stroke-miterlimit:2;" d="M 252.898438 23.519531 L 259.898438 23.519531 L 259.898438 34.519531 L 252.898438 34.519531 Z M 252.898438 23.519531 "/>
<path style="fill:none;stroke-width:1;stroke-linecap:round;stroke-linejoin:miter;stroke:rgb(0%,0%,0%);stroke-opacity:1;stroke-miterlimit:2;" d="M 262.898438 23.519531 L 269.898438 23.519531 L 269.898438 34.519531 L 262.898438 34.519531 Z M 262.898438 23.519531 "/>
<path style="fill:none;stroke-width:1;stroke-linecap:round;stroke-linejoin:miter;stroke:rgb(0%,0%,0%);stroke-opacity:1;stroke-miterlimit:2;" d="M 272.898438 23.519531 L 279.898438 23.519531 L 279.898438 34.519531 L 272.898438 34.519531 Z M 272.898438 23.519531 "/>
<path style="fill:none;stroke-width:1;stroke-linecap:round;stroke-linejoin:miter;stroke:rgb(0%,0%,0%);stroke-opacity:1;stroke-miterlimit:2;" d="M 282.898438 23.519531 L 289.898438 23.519531 L 289.898438 34.519531 L 282.898438 34.519531 Z M 282.898438 23.519531 "/>
<path style="fill:none;stroke-width:0.75;stroke-linecap:round;stroke-linejoin:round;stroke:rgb(0%,0%,0%);stroke-opacity:1;stroke-miterlimit:10;" d="M 59.039062 430.558594 L 473.761719 430.558594 L 473.761719 59.039062 L 59.039062 59.039062 L 59.039062 430.558594 "/>
</g>
</svg>
